<svg xmlns="http://www.w3.org/2000/svg" width="639" height="639" viewBox="0 0 639 639">
<g>
<path d="M 0.00 0.00 L 639.00 0.00 L 639.00 639.00 L 0.00 639.00 ZM 293.96 481.36 L 300.41 487.95 L 308.46 480.14 C317.60,471.26 325.70,466.15 342.08,458.95 C359.25,451.39 405.19,436.37 443.00,425.94 C449.33,424.20 456.70,421.66 459.38,420.30 C466.33,416.79 473.52,409.67 476.74,403.12 L 479.50 397.50 L 480.03 166.00 L 476.38 166.00 C468.57,166.00 434.87,172.30 409.57,178.50 C380.26,185.67 349.53,196.13 327.46,206.44 C322.08,208.96 317.51,210.84 317.29,210.63 C316.50,209.83 325.89,202.58 339.00,193.85 C371.21,172.40 412.14,156.76 453.81,149.99 C462.10,148.64 463.00,147.59 463.00,139.30 L 463.00 134.72 L 457.25 135.26 C450.57,135.88 431.19,140.14 419.13,143.64 C394.99,150.63 364.85,164.36 345.27,177.30 C339.10,181.38 333.81,184.48 333.52,184.19 C333.24,183.90 333.00,184.11 333.00,184.66 C333.00,185.20 329.96,188.07 326.25,191.03 C322.54,193.99 317.55,198.16 315.17,200.30 C312.79,202.43 310.59,203.93 310.28,203.62 C308.44,201.77 339.10,168.09 352.29,157.46 C374.63,139.48 407.21,121.94 431.88,114.63 C438.77,112.58 440.00,111.50 440.00,107.46 C440.00,102.97 439.11,101.00 437.08,101.00 C434.80,101.00 420.79,105.87 408.58,110.91 C378.94,123.14 350.95,142.82 330.20,166.00 C320.43,176.92 309.04,193.02 303.93,203.13 C302.30,206.36 300.77,209.00 300.53,209.00 C300.29,209.00 297.26,204.39 293.80,198.75 C265.11,152.02 222.84,119.20 170.64,103.11 L 170.36 103.03 C164.98,101.37 162.64,100.65 161.69,101.49 C160.96,102.14 161.04,103.70 161.19,106.47 L 161.20 106.66 L 161.50 112.32 L 171.00 115.50 C202.76,126.12 235.40,145.23 257.98,166.42 C261.54,169.77 264.52,172.84 264.60,173.25 C264.68,173.66 264.86,174.34 264.99,174.75 C265.13,175.16 265.15,175.95 265.04,176.50 C264.92,177.05 265.14,177.19 265.52,176.82 C265.90,176.44 267.17,177.01 268.35,178.09 C269.53,179.17 271.62,180.94 273.00,182.03 L 275.50 184.01 L 272.75 183.57 C271.24,183.33 270.00,183.48 270.00,183.90 C270.00,186.07 265.34,183.93 254.50,176.77 C236.13,164.65 212.89,153.80 188.95,146.18 C172.29,140.87 146.73,135.00 140.30,135.00 C137.88,135.00 137.83,135.15 138.48,140.25 C139.51,148.41 139.78,148.87 143.81,149.56 C183.93,156.45 220.96,169.20 249.00,185.76 C257.05,190.52 257.96,191.39 257.47,193.88 C257.29,194.77 257.12,195.84 257.08,196.25 C257.03,196.66 256.49,197.00 255.88,197.00 C255.14,197.00 255.22,196.41 256.11,195.25 C257.22,193.82 257.06,193.85 255.24,195.40 C253.03,197.29 252.87,197.26 234.76,191.19 C206.23,181.64 177.49,174.59 144.52,169.03 C134.63,167.36 125.28,166.00 123.75,166.00 L 120.97 166.00 L 121.50 395.50 L 124.14 401.12 C132.01,417.91 152.17,428.08 185.34,431.99 C202.36,434.00 225.88,430.70 249.00,423.06 C258.01,420.08 280.08,409.12 288.50,403.44 C320.22,382.04 352.37,340.57 367.51,301.50 C369.01,297.65 370.41,294.31 370.62,294.07 C370.84,293.84 375.23,297.78 380.37,302.82 C389.68,311.95 391.61,313.19 392.57,310.69 C392.84,309.97 391.22,298.60 388.97,285.44 C382.43,247.28 381.94,245.00 380.18,245.00 C379.18,245.00 369.07,253.90 349.17,272.27 C334.05,286.25 332.03,288.46 333.30,289.73 C334.50,290.92 336.03,291.00 342.12,290.15 C346.18,289.59 351.86,288.86 354.75,288.53 L 360.00 287.93 L 358.00 292.97 C350.45,311.97 347.26,318.79 340.84,329.69 C329.13,349.56 310.89,371.94 296.62,383.96 C275.41,401.82 250.39,414.33 225.50,419.53 C214.64,421.79 193.34,422.57 183.10,421.07 C157.50,417.33 139.39,408.28 133.90,396.50 C132.13,392.68 132.04,387.71 132.02,285.31 L 132.00 178.13 L 135.75 178.65 C154.62,181.32 185.40,188.00 208.64,194.48 C244.35,204.45 281.24,220.27 290.74,229.71 L 294.98 233.93 L 295.24 284.41 L 295.50 334.89 L 300.73 328.69 L 305.96 322.50 L 305.98 277.83 L 306.00 233.16 L 311.25 228.50 C319.44,221.25 340.49,211.41 369.00,201.52 C394.67,192.62 443.95,180.87 462.25,179.29 L 469.00 178.71 L 468.96 285.60 C468.95,290.00 468.95,294.21 468.95,298.26 C468.92,388.13 468.92,395.91 465.29,401.22 C464.79,401.96 464.21,402.66 463.55,403.52 C459.67,408.61 452.06,411.94 429.50,418.43 C400.22,426.86 372.23,435.57 358.00,440.69 C342.27,446.34 321.48,456.35 313.00,462.35 L 306.50 466.95 L 306.24 436.97 C306.09,420.49 305.76,407.00 305.50,407.00 C305.24,407.00 302.77,408.39 300.02,410.09 L 295.00 413.17 L 295.00 467.06 L 287.75 462.17 C278.56,455.97 271.51,452.43 256.64,446.56 L 244.77 441.88 L 237.14 443.56 C229.34,445.28 227.10,445.77 227.10,446.27 C227.10,446.47 227.46,446.67 227.97,446.96 L 228.00 446.97 C228.82,447.43 234.23,449.45 240.00,451.46 C251.78,455.55 276.55,467.21 283.16,471.78 C285.55,473.43 290.40,477.74 293.96,481.36 ZM 213.50 390.60 C232.15,395.85 254.38,391.30 264.08,380.25 C265.74,378.37 267.70,377.05 268.44,377.34 C269.17,377.62 270.56,379.91 271.52,382.43 C272.49,384.94 273.69,387.00 274.20,387.00 C276.94,387.00 266.54,366.32 258.53,355.83 C250.40,345.19 246.74,341.30 234.65,330.42 C229.23,325.55 225.29,321.40 225.89,321.20 C227.67,320.61 245.61,334.68 254.88,343.95 C259.75,348.82 265.02,355.26 267.00,358.77 C268.92,362.18 270.81,364.98 271.19,364.99 C272.38,365.01 273.28,356.04 272.71,349.79 C271.99,341.76 267.36,332.54 261.13,326.72 C255.47,321.43 244.85,315.86 230.17,310.50 C215.52,305.14 210.80,300.17 212.39,291.74 C213.35,286.67 216.56,282.27 220.92,280.04 C226.18,277.36 236.82,277.28 242.54,279.88 C249.69,283.13 256.41,292.69 260.41,305.32 C260.79,306.52 261.76,307.03 263.25,306.82 C265.46,306.51 265.50,306.25 265.50,293.03 L 265.50 279.56 L 258.61 276.69 C249.20,272.78 235.72,271.22 225.26,272.83 C206.58,275.72 196.23,286.46 195.23,304.00 C194.89,310.03 195.24,312.65 197.01,317.35 C201.24,328.55 215.31,340.74 239.35,354.02 C253.87,362.04 256.42,365.31 254.13,372.96 C251.38,382.15 244.46,386.47 232.50,386.47 C226.20,386.47 223.63,386.00 220.39,384.28 C214.27,381.04 207.18,372.56 202.79,363.25 C199.48,356.22 198.54,355.00 196.45,355.00 L 194.00 355.00 L 194.00 368.35 C194.00,379.89 194.24,381.91 195.79,383.31 C198.27,385.56 204.11,387.96 213.50,390.60 ZM 282.00 209.54 C282.00,210.67 278.84,209.52 270.11,205.22 C264.94,202.68 261.23,200.42 261.86,200.21 C262.49,200.00 263.00,199.24 263.00,198.50 C263.00,195.77 268.10,197.85 274.96,203.40 C278.83,206.53 282.00,209.29 282.00,209.54 ZM 285.97 197.61 C287.65,199.95 288.68,202.07 288.26,202.32 C287.84,202.57 284.35,199.86 280.50,196.30 C276.29,192.40 274.00,189.62 274.76,189.32 C275.45,189.05 275.76,188.42 275.45,187.91 C275.14,187.41 275.38,187.00 276.00,187.00 C277.32,187.00 281.70,191.66 285.97,197.61 ZM 268.45 181.92 C268.70,182.33 269.61,182.67 270.46,182.67 C272.31,182.67 271.56,181.70 269.47,181.39 C268.65,181.27 268.20,181.51 268.45,181.92 Z" fill="rgb(56,88,76)"/>
<path d="M 254.02 188.84 C254.34,189.04 254.65,189.23 254.96,189.43 C260.19,192.68 266.01,196.73 270.86,200.35 C266.16,197.18 263.00,196.35 263.00,198.50 C263.00,199.24 262.49,200.00 261.86,200.21 C261.38,200.37 263.40,201.71 266.66,203.46 C259.23,200.06 250.58,196.63 241.03,193.28 C252.95,197.23 253.32,197.04 255.24,195.40 C257.06,193.85 257.22,193.82 256.11,195.25 C255.22,196.41 255.14,197.00 255.88,197.00 C256.49,197.00 257.03,196.66 257.08,196.25 C257.12,195.84 257.29,194.77 257.47,193.88 C257.83,192.05 257.44,191.10 254.02,188.84 ZM 274.83 183.91 C276.83,186.20 278.77,188.54 280.65,190.91 L 280.75 191.03 C278.55,188.56 276.76,187.00 276.00,187.00 C275.38,187.00 275.14,187.41 275.45,187.91 C275.76,188.42 275.45,189.05 274.76,189.32 C274.00,189.62 276.29,192.40 280.50,196.30 C284.13,199.66 287.45,202.26 288.16,202.34 C288.03,202.96 286.56,202.04 283.63,199.27 C276.10,192.12 267.27,185.21 257.51,178.73 C266.21,184.31 270.00,185.86 270.00,183.90 C270.00,183.48 271.24,183.33 272.75,183.57 ZM 263.02 171.38 C266.70,174.98 270.23,178.70 273.61,182.51 L 273.00 182.03 C271.62,180.94 269.53,179.17 268.35,178.09 C267.17,177.01 265.90,176.44 265.52,176.82 C265.14,177.19 264.92,177.05 265.04,176.50 C265.15,175.95 265.13,175.16 264.99,174.75 C264.86,174.34 264.68,173.66 264.60,173.25 C264.56,173.07 263.97,172.38 263.02,171.38 ZM 254.21 176.58 C234.92,164.24 212.29,153.61 188.95,146.18 C212.77,153.76 235.89,164.53 254.21,176.58 ZM 226.54 142.27 C209.27,131.23 189.98,121.85 171.00,115.50 C190.65,122.07 209.40,131.16 226.54,142.27 ZM 268.45 181.92 C268.20,181.51 268.65,181.27 269.47,181.39 C271.56,181.70 272.31,182.67 270.46,182.67 C269.61,182.67 268.70,182.33 268.45,181.92 ZM 207.18 166.25 C187.71,159.10 166.24,153.42 143.81,149.56 C166.57,153.47 187.76,159.06 207.18,166.25 ZM 218.00 185.88 C205.68,182.24 192.49,178.80 178.90,175.71 C192.36,178.71 205.28,182.07 218.00,185.88 ZM 167.45 173.28 C159.03,171.60 148.73,169.74 140.20,168.32 C141.61,168.54 143.06,168.78 144.52,169.03 C152.39,170.36 160.01,171.77 167.45,173.28 Z" fill="rgb(81,103,89)"/>
<path d="M 293.96 481.36 C290.40,477.74 285.55,473.43 283.16,471.78 C276.55,467.21 251.78,455.55 240.00,451.46 C234.23,449.45 228.82,447.43 228.00,446.97 C226.19,445.96 226.14,445.98 237.14,443.56 L 244.77 441.88 L 256.64 446.56 C271.51,452.43 278.56,455.97 287.75,462.17 L 295.00 467.06 L 295.00 440.12 L 295.00 413.17 L 300.02 410.09 C302.77,408.39 305.24,407.00 305.50,407.00 C305.76,407.00 306.09,420.49 306.24,436.97 L 306.50 466.95 L 313.00 462.35 C321.48,456.35 342.27,446.34 358.00,440.69 C372.23,435.57 400.22,426.86 429.50,418.43 C452.06,411.94 459.67,408.61 463.55,403.52 C469.13,396.21 468.91,401.05 468.96,285.60 L 469.00 178.71 L 462.25 179.29 C443.95,180.87 394.67,192.62 369.00,201.52 C340.49,211.41 319.44,221.25 311.25,228.50 L 306.00 233.16 L 305.98 277.83 L 305.96 322.50 L 300.73 328.69 L 295.50 334.89 L 295.24 284.41 L 294.98 233.93 L 290.74 229.71 C281.24,220.27 244.35,204.45 208.64,194.48 C185.40,188.00 154.62,181.32 135.75,178.65 L 132.00 178.13 L 132.02 285.31 C132.04,387.71 132.13,392.68 133.90,396.50 C139.39,408.28 157.50,417.33 183.10,421.07 C193.34,422.57 214.64,421.79 225.50,419.53 C250.39,414.33 275.41,401.82 296.62,383.96 C310.89,371.94 329.13,349.56 340.84,329.69 C347.26,318.79 350.45,311.97 358.00,292.97 L 360.00 287.93 L 354.75 288.53 C351.86,288.86 346.18,289.59 342.12,290.15 C336.03,291.00 334.50,290.92 333.30,289.73 C332.03,288.46 334.05,286.25 349.17,272.27 C369.07,253.90 379.18,245.00 380.18,245.00 C381.94,245.00 382.43,247.28 388.97,285.44 C391.22,298.60 392.84,309.97 392.57,310.69 C391.61,313.19 389.68,311.95 380.37,302.82 C375.23,297.78 370.84,293.84 370.62,294.07 C370.41,294.31 369.01,297.65 367.51,301.50 C352.37,340.57 320.22,382.04 288.50,403.44 C280.08,409.12 258.01,420.08 249.00,423.06 C225.88,430.70 202.36,434.00 185.34,431.99 C152.17,428.08 132.01,417.91 124.14,401.12 L 121.50 395.50 L 121.23 280.75 L 120.97 166.00 L 123.75 166.00 C128.02,166.00 160.85,171.69 176.00,175.06 C214.94,183.71 250.88,195.35 272.83,206.41 C276.87,208.45 280.69,209.94 281.32,209.73 C282.96,209.18 267.30,197.12 254.96,189.43 C224.52,170.44 186.98,156.98 143.81,149.56 C139.78,148.87 139.51,148.41 138.48,140.25 C137.83,135.15 137.88,135.00 140.30,135.00 C146.73,135.00 172.29,140.87 188.95,146.18 C225.69,157.87 260.66,177.49 283.63,199.27 C290.79,206.06 289.25,201.72 280.65,190.91 C253.70,156.99 214.55,130.07 171.00,115.50 L 161.50 112.32 L 161.20 106.66 C160.85,100.03 160.76,100.07 170.64,103.11 C222.84,119.20 265.11,152.02 293.80,198.75 C297.26,204.39 300.29,209.00 300.53,209.00 C300.77,209.00 302.30,206.36 303.93,203.13 C309.04,193.02 320.43,176.92 330.20,166.00 C350.95,142.82 378.94,123.14 408.58,110.91 C420.79,105.87 434.80,101.00 437.08,101.00 C439.11,101.00 440.00,102.97 440.00,107.46 C440.00,111.50 438.77,112.58 431.88,114.63 C407.21,121.94 374.63,139.48 352.29,157.46 C339.10,168.09 308.44,201.77 310.28,203.62 C310.59,203.93 312.79,202.43 315.17,200.30 C317.55,198.16 322.54,193.99 326.25,191.03 C329.96,188.07 333.00,185.20 333.00,184.66 C333.00,184.11 333.24,183.90 333.52,184.19 C333.81,184.48 339.10,181.38 345.27,177.30 C364.85,164.36 394.99,150.63 419.13,143.64 C431.19,140.14 450.57,135.88 457.25,135.26 L 463.00 134.72 L 463.00 139.30 C463.00,147.59 462.10,148.64 453.81,149.99 C412.14,156.76 371.21,172.40 339.00,193.85 C325.89,202.58 316.50,209.83 317.29,210.63 C317.51,210.84 322.08,208.96 327.46,206.44 C349.53,196.13 380.26,185.67 409.57,178.50 C434.87,172.30 468.57,166.00 476.38,166.00 L 480.03 166.00 L 479.77 281.75 L 479.50 397.50 L 476.74 403.12 C473.52,409.67 466.33,416.79 459.38,420.30 C456.70,421.66 449.33,424.20 443.00,425.94 C405.19,436.37 359.25,451.39 342.08,458.95 C325.70,466.15 317.60,471.26 308.46,480.14 L 300.41 487.95 L 293.96 481.36 ZM 213.50 390.60 C204.11,387.96 198.27,385.56 195.79,383.31 C194.24,381.91 194.00,379.89 194.00,368.35 L 194.00 355.00 L 196.45 355.00 C198.54,355.00 199.48,356.22 202.79,363.25 C207.18,372.56 214.27,381.04 220.39,384.28 C223.63,386.00 226.20,386.47 232.50,386.47 C244.46,386.47 251.38,382.15 254.13,372.96 C256.42,365.31 253.87,362.04 239.35,354.02 C215.31,340.74 201.24,328.55 197.01,317.35 C195.24,312.65 194.89,310.03 195.23,304.00 C196.23,286.46 206.58,275.72 225.26,272.83 C235.72,271.22 249.20,272.78 258.61,276.69 L 265.50 279.56 L 265.50 293.03 C265.50,306.25 265.46,306.51 263.25,306.82 C261.76,307.03 260.79,306.52 260.41,305.32 C256.41,292.69 249.69,283.13 242.54,279.88 C236.82,277.28 226.18,277.36 220.92,280.04 C216.56,282.27 213.35,286.67 212.39,291.74 C210.80,300.17 215.52,305.14 230.17,310.50 C244.85,315.86 255.47,321.43 261.13,326.72 C267.36,332.54 271.99,341.76 272.71,349.79 C273.28,356.04 272.38,365.01 271.19,364.99 C270.81,364.98 268.92,362.18 267.00,358.77 C265.02,355.26 259.75,348.82 254.88,343.95 C245.61,334.68 227.67,320.61 225.89,321.20 C225.29,321.40 229.23,325.55 234.65,330.42 C246.74,341.30 250.40,345.19 258.53,355.83 C266.54,366.32 276.94,387.00 274.20,387.00 C273.69,387.00 272.49,384.94 271.52,382.43 C270.56,379.91 269.17,377.62 268.44,377.34 C267.70,377.05 265.74,378.37 264.08,380.25 C254.38,391.30 232.15,395.85 213.50,390.60 Z" fill="rgb(241,240,224)"/>
</g>
</svg>