<svg xmlns="http://www.w3.org/2000/svg" width="777" height="777" viewBox="0 0 777 777">
<g>
<path d="M 0.00 0.00 L 777.00 0.00 L 777.00 777.00 L 0.00 777.00 ZM 146.68 518.97 C148.78,521.09 150.73,522.87 151.00,522.91 C151.27,522.95 152.93,521.50 154.69,519.70 C160.76,513.44 170.49,509.54 208.69,498.02 C217.75,495.29 219.29,494.48 222.44,490.79 C224.40,488.51 226.01,485.71 226.01,484.57 C226.02,483.43 226.13,461.63 226.26,436.13 L 226.50 389.76 L 220.50 390.32 C217.20,390.63 211.12,391.54 207.00,392.35 C196.18,394.47 191.29,395.07 192.83,394.11 C193.85,393.48 193.66,393.14 192.08,392.73 C186.19,391.19 196.18,386.43 210.63,383.89 C218.46,382.51 218.51,382.48 219.40,378.70 C220.06,375.93 220.01,375.91 216.28,376.53 C209.12,377.72 196.49,381.14 190.88,383.40 C186.42,385.20 184.93,385.42 183.65,384.48 C182.76,383.83 182.36,382.94 182.77,382.49 C183.17,382.05 182.72,381.96 181.76,382.30 C179.45,383.13 179.91,381.03 182.50,378.91 C185.48,376.46 195.75,371.52 202.00,369.52 C208.35,367.49 210.52,365.81 209.67,363.58 C208.76,361.20 200.53,361.41 198.81,363.86 C198.09,364.88 194.94,366.92 191.81,368.40 C177.67,375.08 160.70,389.50 155.56,399.20 C154.49,401.22 152.77,403.09 151.73,403.36 C149.63,403.91 149.45,403.74 140.53,392.40 C130.62,379.80 116.83,370.08 100.85,364.45 C89.23,360.35 88.83,365.02 100.40,369.66 C114.41,375.27 122.27,379.86 121.79,382.14 C121.60,383.02 122.29,383.42 123.75,383.26 C124.99,383.13 126.00,383.43 126.00,383.92 C126.00,384.42 124.91,384.70 123.57,384.56 C122.24,384.41 120.55,384.67 119.82,385.13 C118.75,385.81 118.77,385.97 119.92,385.98 C120.70,385.99 121.09,386.24 120.79,386.54 C120.50,386.84 116.93,385.77 112.88,384.16 C106.76,381.75 97.41,379.14 85.50,376.53 C84.11,376.22 83.15,376.83 82.34,378.54 C81.71,379.89 81.52,381.20 81.93,381.46 C84.36,382.96 80.52,390.00 77.26,390.00 L 75.00 390.00 L 75.00 436.18 C75.00,481.44 75.04,482.46 77.16,486.82 C78.65,489.91 80.79,492.20 84.16,494.29 C86.82,495.94 89.00,497.57 89.00,497.90 C89.00,498.76 97.94,499.39 109.50,499.35 C116.85,499.32 121.31,498.74 126.35,497.15 C147.71,490.45 164.67,474.65 177.09,449.90 C178.85,446.38 180.47,443.30 180.67,443.06 C180.87,442.83 182.89,444.40 185.15,446.56 L 189.26 450.50 L 188.65 444.31 C188.04,438.07 185.15,422.83 184.44,422.11 C183.70,421.36 165.00,438.66 165.00,440.09 C165.00,440.69 166.96,440.81 170.00,440.41 C173.91,439.89 175.00,440.04 174.99,441.12 C174.96,443.94 165.72,460.72 160.34,467.75 C152.85,477.53 146.60,482.96 137.29,487.74 C125.47,493.82 119.81,495.38 109.50,495.40 C97.62,495.41 89.08,492.94 83.86,487.98 L 80.00 484.31 L 80.00 395.00 L 82.56 395.00 C91.46,395.00 122.65,403.63 136.08,409.81 C141.53,412.31 144.69,413.72 146.53,416.15 C149.07,419.51 149.05,424.82 149.00,437.70 L 149.00 438.43 C148.96,448.92 148.95,457.95 148.98,458.50 C149.02,459.05 149.92,458.38 151.00,457.00 C152.78,454.73 152.96,452.82 152.98,436.29 C152.98,435.55 152.98,434.83 152.98,434.14 C152.99,423.22 152.99,418.90 155.06,416.15 C156.55,414.18 159.09,413.01 163.45,410.79 C174.75,405.05 210.42,395.00 219.52,395.00 L 222.00 395.00 L 222.00 438.53 C222.00,486.09 221.85,487.48 216.33,490.32 C214.77,491.13 206.98,493.64 199.00,495.91 C179.86,501.35 162.95,507.57 157.72,511.08 L 153.50 513.92 L 153.22 501.86 C152.98,491.46 152.73,489.89 151.39,490.41 C150.53,490.73 149.65,491.00 149.42,491.00 C149.19,491.00 149.00,495.95 149.00,502.00 C149.00,508.41 148.60,513.00 148.03,513.00 C147.50,513.00 144.24,511.45 140.78,509.56 C133.10,505.36 126.08,503.47 122.53,504.66 C120.21,505.43 121.10,506.00 131.40,510.31 C139.65,513.76 143.93,516.18 146.68,518.97 ZM 467.79 485.64 C475.88,487.88 483.91,485.96 488.92,480.60 C492.15,477.14 493.00,477.32 493.00,481.44 C493.00,483.33 493.34,485.09 493.75,485.34 C494.16,485.60 498.33,485.18 503.00,484.42 C507.67,483.66 512.96,483.03 514.75,483.02 C519.02,482.99 519.40,479.57 515.26,478.53 C514.15,478.25 513.28,478.10 512.59,477.66 C509.99,476.00 509.99,470.27 510.00,438.43 C510.00,436.97 510.00,435.45 510.00,433.88 C510.00,394.66 509.89,392.00 508.25,392.00 C505.47,392.00 485.37,396.15 483.98,397.02 C481.81,398.35 483.71,401.00 486.85,401.00 C491.45,401.00 492.12,402.73 491.92,414.16 C491.70,427.18 491.58,427.49 487.86,424.74 C483.83,421.76 473.12,421.13 466.08,423.47 C459.97,425.50 453.21,431.87 449.89,438.73 C447.18,444.32 446.09,458.90 447.88,465.56 C450.40,474.92 458.46,483.05 467.79,485.64 ZM 636.23 510.00 C642.68,513.93 650.99,511.52 656.37,504.14 C660.04,499.10 662.17,494.29 676.06,459.50 C681.11,446.85 685.93,434.82 686.77,432.76 C687.87,430.07 689.23,428.68 691.65,427.81 C693.76,427.05 695.00,425.93 695.00,424.80 C695.00,423.18 693.92,423.00 683.93,423.00 C674.08,423.00 672.89,423.19 673.18,424.69 C673.36,425.62 674.97,426.75 676.80,427.23 C678.61,427.70 680.34,428.72 680.64,429.51 C681.33,431.31 668.90,463.31 667.91,462.27 C667.51,461.85 664.38,454.84 660.96,446.70 C657.53,438.56 653.77,430.48 652.60,428.74 C649.37,423.95 644.04,422.73 629.27,423.40 C622.55,423.71 616.36,423.69 615.52,423.37 C614.29,422.90 614.00,420.74 614.00,412.03 C614.00,402.66 614.27,400.93 616.07,398.63 C617.46,396.88 619.10,396.00 621.03,396.00 C623.58,396.00 623.98,396.42 624.51,399.75 C625.72,407.26 626.11,408.10 629.28,410.03 C633.53,412.62 635.58,412.51 638.55,409.55 C640.30,407.80 641.00,405.99 641.00,403.27 C641.00,395.42 635.92,392.00 624.30,392.01 C614.26,392.02 608.06,394.74 601.98,401.80 C597.35,407.18 597.32,407.23 596.35,416.75 L 595.71 423.00 L 591.96 423.00 C589.42,423.00 588.01,423.52 587.59,424.63 C586.55,427.33 589.00,429.26 592.70,428.66 L 596.00 428.13 L 596.00 452.13 C596.00,466.41 595.59,476.90 594.99,478.02 C594.43,479.06 592.38,480.21 590.44,480.58 C587.90,481.05 586.99,481.70 587.21,482.87 C587.49,484.30 589.69,484.50 605.50,484.50 C621.31,484.50 623.51,484.30 623.79,482.87 C624.01,481.68 623.07,481.05 620.30,480.53 C618.21,480.14 615.94,479.36 615.25,478.79 C614.31,478.01 614.00,471.66 614.00,453.38 L 614.00 429.00 L 616.75 428.99 C618.26,428.99 622.51,428.70 626.19,428.35 L 632.88 427.72 L 640.05 442.61 C644.00,450.80 650.10,463.97 653.61,471.87 L 659.99 486.23 L 657.94 490.87 C655.88,495.53 651.43,501.00 649.69,501.00 C649.18,501.00 647.23,499.65 645.35,498.00 C641.07,494.24 636.86,494.05 633.45,497.45 C629.58,501.33 630.76,506.66 636.23,510.00 ZM 276.50 486.42 C277.60,486.67 281.08,486.65 284.23,486.39 C303.08,484.80 313.53,475.19 313.47,459.50 C313.41,445.99 307.50,439.36 288.00,430.94 C282.77,428.68 277.04,425.73 275.25,424.37 C263.82,415.68 269.07,400.00 283.40,400.00 C291.33,400.00 297.25,404.84 302.05,415.25 C306.64,425.22 308.00,424.35 308.00,411.44 L 308.00 400.89 L 303.25 398.69 C299.13,396.79 296.77,396.50 285.50,396.50 C273.81,396.50 272.05,396.74 268.00,398.84 C262.19,401.87 259.26,404.61 256.88,409.25 C252.32,418.15 253.61,429.01 260.13,436.41 C264.62,441.51 270.76,445.28 282.93,450.41 C292.31,454.37 296.41,457.69 298.06,462.69 C302.65,476.58 285.77,487.04 272.14,478.75 C268.57,476.57 263.62,469.54 260.20,461.75 C258.45,457.77 257.67,457.00 255.41,457.00 L 252.72 457.00 L 253.36 463.15 C253.71,466.53 254.00,471.47 254.00,474.13 C254.00,478.90 254.07,479.00 258.75,481.36 C261.36,482.68 265.98,484.26 269.00,484.87 C272.02,485.48 275.40,486.18 276.50,486.42 ZM 388.00 485.52 C396.32,488.21 405.02,486.07 411.75,479.69 C413.54,478.00 415.02,476.81 415.04,477.05 C415.17,478.62 416.24,485.53 416.37,485.68 C416.46,485.78 421.92,485.08 428.51,484.12 C437.78,482.77 440.57,482.02 440.80,480.78 C441.02,479.68 440.08,478.96 437.81,478.47 C435.99,478.07 434.17,477.24 433.77,476.62 C433.36,476.01 433.02,463.46 433.02,448.75 L 433.00 422.00 L 430.75 422.01 C429.51,422.01 426.92,422.41 425.00,422.91 C423.08,423.40 418.06,424.58 413.86,425.52 C407.99,426.85 406.27,427.62 406.45,428.85 C406.58,429.74 408.02,430.73 409.68,431.07 C411.29,431.40 412.41,431.61 413.19,432.24 C415.00,433.70 415.00,437.39 415.00,449.97 L 415.00 450.61 C415.00,470.08 414.38,472.58 408.70,476.04 C402.16,480.03 395.03,477.37 393.04,470.20 C392.47,468.17 392.01,456.49 392.01,444.25 C392.00,426.25 391.74,422.00 390.65,422.00 C388.75,422.00 366.75,426.91 366.21,427.46 C365.06,428.61 367.18,431.00 369.35,431.00 C374.04,431.00 374.49,432.89 374.61,452.90 C374.70,467.75 375.05,472.25 376.36,475.20 C378.56,480.20 382.58,483.76 388.00,485.52 ZM 529.00 511.30 C535.01,513.48 543.53,509.93 547.82,503.46 C549.43,501.03 556.69,484.07 563.96,465.77 C571.22,447.47 577.79,431.53 578.55,430.34 C579.31,429.15 581.30,427.87 582.97,427.51 C585.06,427.05 586.00,426.25 586.00,424.92 C586.00,423.14 585.18,423.00 574.93,423.00 C564.95,423.00 563.89,423.17 564.19,424.74 C564.37,425.69 565.42,426.64 566.51,426.85 C569.29,427.36 571.00,428.94 571.00,430.97 C571.00,433.57 559.38,462.53 558.42,462.34 C557.96,462.24 555.92,458.10 553.89,453.13 C551.87,448.15 548.25,440.12 545.85,435.29 C540.43,424.34 538.30,423.00 526.25,423.00 C519.00,423.00 518.00,423.22 518.00,424.78 C518.00,425.83 519.20,427.02 520.93,427.67 C524.21,428.91 527.26,434.74 542.02,468.05 L 542.21 468.48 C547.92,481.36 549.87,485.76 549.03,489.54 C548.59,491.54 547.36,493.36 545.50,496.18 C542.37,500.91 539.44,501.37 535.22,497.78 C531.30,494.47 528.21,494.26 524.63,497.07 C520.99,499.94 521.04,504.73 524.75,508.19 C526.26,509.60 528.17,511.00 529.00,511.30 ZM 338.50 485.17 C345.75,488.62 358.11,485.39 363.01,478.77 C365.76,475.06 364.33,472.68 360.73,474.96 C354.58,478.85 353.24,479.18 350.12,477.56 C348.48,476.71 346.81,475.00 346.40,473.76 C346.00,472.52 345.66,462.05 345.65,450.50 L 345.64 429.50 L 353.57 429.00 C358.44,428.69 360.40,428.58 361.06,427.60 C361.50,426.94 361.37,425.90 361.14,424.14 L 361.12 424.04 C361.06,423.52 357.51,422.95 353.25,422.79 L 345.50 422.50 L 345.21 414.25 C344.93,406.38 344.81,406.00 342.61,406.00 C340.92,406.00 339.47,407.33 337.23,410.93 C334.08,416.01 327.64,421.45 322.70,423.23 C320.63,423.97 319.97,424.80 320.20,426.37 C320.43,428.04 321.30,428.57 324.25,428.81 L 328.00 429.12 L 328.00 451.00 C328.00,464.06 328.43,474.00 329.07,475.68 C330.57,479.66 333.85,482.95 338.50,485.17 ZM 485.46 477.02 C479.38,480.78 473.70,478.76 469.32,471.29 C466.99,467.30 466.51,465.20 466.17,457.32 C465.61,444.61 466.59,438.04 469.76,433.15 C472.90,428.30 476.41,426.61 481.38,427.54 C490.11,429.18 494.34,442.72 490.90,458.00 C489.31,465.05 489.01,468.89 490.01,469.50 C491.56,470.46 488.86,474.92 485.46,477.02 ZM 112.94 483.11 C117.18,484.50 128.61,483.49 131.72,481.45 C133.25,480.44 135.47,479.12 136.66,478.50 C138.81,477.39 138.80,477.34 134.91,471.23 C132.76,467.84 128.63,462.81 125.75,460.04 C122.86,457.27 121.14,455.00 121.92,455.00 C123.40,455.00 135.60,466.99 137.69,470.50 C138.73,472.24 138.89,471.88 138.94,467.68 C139.04,459.20 135.05,454.43 124.09,449.95 C114.89,446.19 112.66,444.02 114.11,440.22 C115.46,436.65 116.65,436.03 122.15,436.02 C126.22,436.00 127.17,436.43 129.90,439.53 C131.60,441.48 133.00,443.93 133.00,444.98 C133.00,447.45 134.97,448.65 136.13,446.88 C137.28,445.13 136.12,435.73 134.64,434.79 C132.65,433.54 123.14,432.75 118.44,433.46 C111.61,434.48 107.87,438.26 107.25,444.80 C106.96,447.81 107.27,451.23 107.98,452.96 C109.57,456.80 117.88,463.77 125.35,467.55 C128.57,469.17 131.43,471.06 131.71,471.75 C132.71,474.22 130.92,477.99 128.04,479.48 C121.59,482.82 114.96,480.21 110.48,472.56 C109.01,470.05 107.40,468.00 106.90,468.00 C106.41,468.00 106.00,470.68 106.00,473.96 C106.00,480.33 106.52,481.01 112.94,483.11 ZM 119.34 395.25 C116.91,397.38 115.44,397.34 106.50,394.93 C102.65,393.88 96.57,392.52 93.00,391.89 C87.03,390.84 79.82,388.13 82.75,388.04 C83.44,388.02 84.00,386.90 84.00,385.56 C84.00,383.29 84.30,383.15 88.44,383.49 C94.50,383.98 106.95,387.44 116.00,391.15 C116.38,391.31 116.74,391.46 117.08,391.60 C122.00,393.61 123.67,394.29 123.60,394.69 C123.56,394.91 122.94,395.04 122.04,395.28 C120.67,395.64 120.22,395.43 120.67,394.66 C121.04,394.02 120.44,394.29 119.34,395.25 ZM 169.56 403.07 L 169.28 403.17 C163.38,405.35 161.39,406.08 161.20,405.75 C161.10,405.59 161.47,405.14 162.03,404.47 L 162.08 404.41 C163.44,402.76 177.87,394.00 179.22,394.00 C179.64,394.00 179.89,395.07 179.78,396.39 C179.65,397.92 179.10,398.59 178.25,398.27 C177.52,397.98 177.05,398.29 177.21,398.95 C177.38,399.63 174.10,401.39 169.56,403.07 ZM 171.17 393.00 C170.58,393.00 167.16,395.23 163.55,397.96 C159.95,400.69 157.00,402.53 157.00,402.06 C157.00,400.59 173.27,385.05 174.21,385.63 C174.70,385.93 174.54,386.85 173.86,387.67 C172.87,388.86 172.91,389.33 174.06,390.06 C174.85,390.56 175.03,390.98 174.45,390.98 C173.87,390.99 172.89,390.49 172.26,389.86 C171.40,389.00 171.25,389.25 171.67,390.86 C171.99,392.06 171.76,393.00 171.17,393.00 ZM 139.00 404.25 C139.00,405.46 136.94,404.97 129.58,402.01 C122.44,399.14 119.83,396.00 124.59,396.00 C127.03,396.00 139.00,402.85 139.00,404.25 ZM 135.62 392.46 C139.79,396.56 143.04,400.32 142.85,400.81 C142.27,402.31 130.47,392.28 130.79,390.56 C131.15,388.68 129.92,388.54 127.97,390.25 C127.18,390.94 126.88,391.07 127.30,390.55 C127.72,390.03 127.09,389.08 125.90,388.44 C124.48,387.69 124.12,387.04 124.86,386.58 C125.49,386.20 126.00,386.39 126.00,387.00 C126.00,387.61 126.45,387.84 127.00,387.50 C127.55,387.16 128.00,387.43 128.00,388.11 C128.00,388.78 128.29,389.04 128.64,388.69 C129.00,388.34 128.72,387.36 128.02,386.52 C127.32,385.69 127.04,385.00 127.40,385.00 C127.75,385.00 131.45,388.36 135.62,392.46 Z" fill="rgb(56,90,76)"/>
<path d="M 218.54 390.53 C207.15,391.94 187.30,396.95 171.68,402.24 C175.08,400.84 177.35,399.51 177.21,398.95 C177.05,398.29 177.52,397.98 178.25,398.27 C179.10,398.59 179.65,397.92 179.78,396.39 C179.88,395.17 179.67,394.16 179.31,394.02 C185.51,391.09 192.15,388.62 199.07,386.65 C191.59,389.01 187.97,391.66 192.08,392.73 C193.66,393.14 193.85,393.48 192.83,394.11 C191.29,395.07 196.18,394.47 207.00,392.35 C210.40,391.68 215.14,390.94 218.54,390.53 ZM 199.83 380.45 C189.99,383.52 179.85,387.89 171.68,392.62 C171.86,392.24 171.87,391.60 171.67,390.86 C171.25,389.25 171.40,389.00 172.26,389.86 C172.89,390.49 173.87,390.99 174.45,390.98 C175.03,390.98 174.85,390.56 174.06,390.06 C172.91,389.33 172.87,388.86 173.86,387.67 C174.54,386.85 174.70,385.93 174.21,385.63 C173.74,385.34 169.51,389.02 165.36,392.97 C165.49,392.85 165.62,392.72 165.75,392.59 C171.92,386.54 177.61,381.88 183.55,378.14 C183.14,378.42 182.79,378.67 182.50,378.91 C179.91,381.03 179.45,383.13 181.76,382.30 C182.72,381.96 183.17,382.05 182.77,382.49 C182.36,382.94 182.76,383.83 183.65,384.48 C184.93,385.42 186.42,385.20 190.88,383.40 C193.05,382.52 196.28,381.47 199.83,380.45 ZM 119.34 395.25 C120.44,394.29 121.04,394.02 120.67,394.66 C120.22,395.43 120.67,395.64 122.04,395.28 C122.94,395.04 123.56,394.91 123.60,394.69 C123.60,394.67 123.60,394.65 123.60,394.63 C126.77,396.22 129.98,397.98 132.64,399.56 C129.36,397.69 125.80,396.00 124.59,396.00 C120.43,396.00 121.90,398.41 127.13,400.93 C113.00,396.04 87.26,390.00 79.39,390.00 L 77.26 390.00 C80.52,390.00 84.36,382.96 81.93,381.46 C81.52,381.20 81.71,379.89 82.34,378.54 C82.58,378.05 82.82,377.65 83.09,377.33 C83.02,377.71 83.00,378.20 83.00,378.84 C83.00,381.47 83.08,381.72 93.00,384.16 C91.26,383.82 89.71,383.59 88.44,383.49 C84.30,383.15 84.00,383.29 84.00,385.56 C84.00,386.90 83.44,388.02 82.75,388.04 C79.82,388.13 87.03,390.84 93.00,391.89 C96.57,392.52 102.65,393.88 106.50,394.93 C115.44,397.34 116.91,397.38 119.34,395.25 ZM 135.62 392.46 C131.45,388.36 127.75,385.00 127.40,385.00 C127.04,385.00 127.32,385.69 128.02,386.52 C128.72,387.36 129.00,388.34 128.64,388.69 C128.29,389.04 128.00,388.78 128.00,388.11 C128.00,387.43 127.55,387.16 127.00,387.50 C126.45,387.84 126.00,387.61 126.00,387.00 C126.00,386.39 125.49,386.20 124.86,386.58 C124.12,387.04 124.48,387.69 125.90,388.44 C127.09,389.08 127.72,390.03 127.30,390.55 C127.18,390.70 127.12,390.79 127.11,390.84 C116.94,385.13 104.53,380.87 87.09,376.88 C98.24,379.37 107.04,381.85 112.88,384.16 C116.93,385.77 120.50,386.84 120.79,386.54 C121.09,386.24 120.70,385.99 119.92,385.98 C118.77,385.97 118.75,385.81 119.82,385.13 C120.55,384.67 122.24,384.41 123.57,384.56 C124.91,384.70 126.00,384.42 126.00,383.92 C126.00,383.82 125.95,383.72 125.87,383.64 C129.04,386.07 132.11,388.76 135.25,391.81 C143.52,399.85 145.86,404.37 139.02,398.93 C141.02,400.42 142.64,401.34 142.85,400.81 C143.04,400.32 139.79,396.56 135.62,392.46 ZM 485.46 477.02 C488.86,474.92 491.56,470.46 490.01,469.50 C489.01,468.89 489.31,465.05 490.90,458.00 C491.43,455.65 491.78,453.34 491.96,451.10 C491.98,452.32 491.99,453.56 491.99,454.79 C492.00,469.75 490.70,474.03 485.19,477.25 C482.64,478.74 480.15,479.20 477.80,478.67 C480.23,479.20 482.81,478.67 485.46,477.02 ZM 208.94 362.76 C206.34,362.19 195.00,366.54 185.54,371.75 C187.66,370.50 189.76,369.37 191.81,368.40 C194.94,366.92 198.09,364.88 198.81,363.86 C200.30,361.74 206.67,361.30 208.94,362.76 ZM 170.56 382.46 C164.42,387.89 158.81,394.14 155.37,399.66 C152.85,403.70 150.62,407.00 150.42,407.00 C150.21,407.00 149.07,405.09 147.88,402.75 C147.14,401.31 145.94,399.44 144.49,397.40 C149.58,403.78 150.00,403.81 151.73,403.36 C152.77,403.09 154.49,401.22 155.56,399.20 C158.16,394.29 163.80,388.17 170.56,382.46 ZM 137.14 397.44 C134.01,395.04 130.72,392.86 127.16,390.86 C127.27,390.82 127.55,390.61 127.97,390.25 C129.92,388.54 131.15,388.68 130.79,390.56 C130.62,391.48 133.94,394.80 137.14,397.44 ZM 84.16 494.29 C80.79,492.20 78.65,489.91 77.16,486.82 C79.93,492.53 85.63,496.14 95.54,498.48 C96.76,498.76 98.03,499.00 99.34,499.20 C93.10,498.96 89.00,498.48 89.00,497.90 C89.00,497.57 86.82,495.94 84.16,494.29 ZM 120.15 379.60 C122.06,380.84 123.90,382.13 125.71,383.51 C125.32,383.28 124.58,383.17 123.75,383.26 C122.29,383.42 121.60,383.02 121.79,382.14 C121.93,381.48 121.36,380.62 120.15,379.60 ZM 125.06 377.34 C118.00,372.41 110.06,368.12 103.74,365.52 C111.47,368.54 118.65,372.52 125.06,377.34 ZM 491.33 440.03 C490.27,435.13 488.14,431.28 485.16,429.16 C487.79,430.98 489.92,434.07 490.96,437.78 C491.09,438.25 491.21,439.03 491.33,440.03 ZM 186.52 376.36 C191.31,373.63 196.33,371.43 201.94,369.53 C206.26,368.07 208.89,366.58 209.71,365.19 C209.15,366.69 206.73,368.01 202.00,369.52 C197.52,370.95 190.96,373.90 186.52,376.36 ZM 210.40 383.93 C217.88,382.40 218.48,382.03 219.17,379.45 C219.48,378.28 219.68,377.20 219.69,376.65 C219.79,377.03 219.64,377.68 219.40,378.70 C218.51,382.48 218.46,382.51 210.63,383.89 C210.55,383.90 210.48,383.91 210.40,383.93 ZM 94.91 362.93 C93.04,362.79 92.01,363.28 92.16,364.55 C91.45,363.35 92.38,362.66 94.91,362.93 ZM 170.95 393.05 C168.32,394.60 165.91,396.19 163.80,397.78 C166.99,395.37 170.00,393.39 170.95,393.05 ZM 151.31 483.58 C161.36,475.29 170.01,464.01 177.09,449.90 C169.98,464.07 161.38,475.31 151.31,483.58 ZM 216.28 376.53 C217.92,376.25 218.85,376.11 219.32,376.26 C218.49,376.27 216.15,376.58 213.50,377.05 C214.49,376.85 215.43,376.67 216.28,376.53 ZM 164.68 402.40 C166.14,401.35 167.94,400.16 169.92,398.99 C170.51,398.64 171.11,398.29 171.72,397.95 C169.21,399.45 166.58,401.10 164.68,402.40 ZM 162.42 405.62 C160.57,406.33 160.63,405.79 161.92,404.59 C161.42,405.20 161.11,405.60 161.20,405.75 C161.28,405.88 161.64,405.85 162.42,405.62 ZM 98.04 368.64 C98.51,368.84 99.00,369.05 99.51,369.25 C101.50,370.05 103.39,370.84 105.20,371.64 C103.69,371.00 102.09,370.34 100.40,369.66 C99.55,369.32 98.77,368.98 98.04,368.64 ZM 136.15 404.45 C138.18,405.06 138.93,404.97 139.00,404.34 C138.93,405.08 138.20,405.16 136.15,404.45 ZM 121.14 498.46 C122.95,498.10 124.71,497.65 126.41,497.14 L 126.35 497.15 C124.59,497.71 122.91,498.14 121.14,498.46 ZM 114.87 390.70 C115.65,391.00 116.37,391.28 117.00,391.55 C117.29,391.67 117.59,391.80 117.90,391.93 L 117.08 391.60 C116.74,391.46 116.38,391.31 116.00,391.15 C115.63,391.00 115.25,390.85 114.87,390.70 ZM 138.89 403.96 C138.96,404.07 139.00,404.16 139.00,404.23 L 139.00 404.24 C139.00,404.17 138.96,404.07 138.89,403.96 ZM 157.00 402.05 L 157.00 402.04 C157.00,402.03 157.00,402.02 157.01,402.00 C157.00,402.02 157.00,402.04 157.00,402.05 Z" fill="rgb(75,101,85)"/>
<path d="M 146.68 518.97 C143.93,516.18 139.65,513.76 131.40,510.31 C121.10,506.00 120.21,505.43 122.53,504.66 C126.08,503.47 133.10,505.36 140.78,509.56 C144.24,511.45 147.50,513.00 148.03,513.00 C148.60,513.00 149.00,508.41 149.00,502.00 C149.00,495.95 149.19,491.00 149.42,491.00 C149.65,491.00 150.53,490.73 151.39,490.41 C152.73,489.89 152.98,491.46 153.22,501.86 L 153.50 513.92 L 157.72 511.08 C162.95,507.57 179.86,501.35 199.00,495.91 C206.98,493.64 214.77,491.13 216.33,490.32 C221.85,487.48 222.00,486.09 222.00,438.53 L 222.00 395.00 L 219.52 395.00 C210.42,395.00 174.75,405.05 163.45,410.79 C152.60,416.31 153.00,415.34 152.98,436.29 C152.96,452.82 152.78,454.73 151.00,457.00 C149.92,458.38 149.02,459.05 148.98,458.50 C148.95,457.95 148.96,448.92 149.00,438.43 C149.09,415.54 149.23,415.85 136.08,409.81 C122.65,403.63 91.46,395.00 82.56,395.00 L 80.00 395.00 L 80.00 439.65 L 80.00 484.31 L 83.86 487.98 C89.08,492.94 97.62,495.41 109.50,495.40 C119.81,495.38 125.47,493.82 137.29,487.74 C146.60,482.96 152.85,477.53 160.34,467.75 C165.72,460.72 174.96,443.94 174.99,441.12 C175.00,440.04 173.91,439.89 170.00,440.41 C166.96,440.81 165.00,440.69 165.00,440.09 C165.00,438.66 183.70,421.36 184.44,422.11 C185.15,422.83 188.04,438.07 188.65,444.31 L 189.26 450.50 L 185.15 446.56 C182.89,444.40 180.87,442.83 180.67,443.06 C180.47,443.30 178.85,446.38 177.09,449.90 C164.79,474.41 147.74,490.40 126.88,496.99 C117.10,500.08 104.81,500.66 95.54,498.48 C85.61,496.14 79.92,492.52 77.14,486.80 C75.05,482.47 75.00,481.36 75.00,436.18 L 75.00 390.00 L 79.39 390.00 C88.37,390.00 120.63,397.87 132.33,402.92 C137.52,405.15 139.00,405.44 139.00,404.23 C139.00,402.88 125.79,395.26 117.00,391.55 C112.32,389.57 102.76,386.55 95.75,384.84 C83.09,381.74 83.00,381.70 83.00,378.84 C83.00,376.37 83.32,376.03 85.25,376.46 C111.01,382.21 126.02,388.45 138.75,398.71 C145.92,404.49 143.62,399.95 135.25,391.81 C124.75,381.60 115.04,375.47 99.51,369.25 C95.15,367.50 92.39,365.80 92.19,364.73 C91.02,358.65 114.54,368.76 129.92,380.94 C135.03,384.98 144.99,397.08 147.88,402.75 C149.07,405.09 150.21,407.00 150.42,407.00 C150.62,407.00 152.85,403.70 155.37,399.66 C161.19,390.32 173.26,378.85 183.54,372.88 C193.99,366.81 207.88,361.48 209.36,362.96 C211.31,364.91 208.66,367.26 201.94,369.53 C188.09,374.21 177.84,380.74 165.75,392.59 C160.94,397.31 157.00,401.56 157.00,402.04 C157.00,402.53 159.98,400.67 163.61,397.91 C175.46,388.95 196.77,380.03 213.42,377.06 C216.67,376.48 219.47,376.14 219.64,376.30 C219.80,376.47 219.59,377.88 219.17,379.45 C218.46,382.12 217.83,382.42 209.61,384.09 C195.11,387.02 181.47,392.14 169.92,398.99 C163.14,403.01 158.43,407.19 162.50,405.58 C179.35,398.91 207.34,391.55 220.48,390.32 L 226.50 389.76 L 226.26 436.13 C226.13,461.63 226.02,483.43 226.01,484.57 C226.01,485.71 224.40,488.51 222.44,490.79 C219.29,494.48 217.75,495.29 208.69,498.02 C170.49,509.54 160.76,513.44 154.69,519.70 C152.93,521.50 151.27,522.95 151.00,522.91 C150.73,522.87 148.78,521.09 146.68,518.97 ZM 529.00 511.30 C528.17,511.00 526.26,509.60 524.75,508.19 C521.04,504.73 520.99,499.94 524.63,497.07 C528.21,494.26 531.30,494.47 535.22,497.78 C539.44,501.37 542.37,500.91 545.50,496.18 C550.92,487.98 550.95,488.18 542.02,468.05 C527.26,434.74 524.21,428.91 520.93,427.67 C519.20,427.02 518.00,425.83 518.00,424.78 C518.00,423.22 519.00,423.00 526.25,423.00 C538.30,423.00 540.43,424.34 545.85,435.29 C548.25,440.12 551.87,448.15 553.89,453.13 C555.92,458.10 557.96,462.24 558.42,462.34 C559.38,462.53 571.00,433.57 571.00,430.97 C571.00,428.94 569.29,427.36 566.51,426.85 C565.42,426.64 564.37,425.69 564.19,424.74 C563.89,423.17 564.95,423.00 574.93,423.00 C585.18,423.00 586.00,423.14 586.00,424.92 C586.00,426.25 585.06,427.05 582.97,427.51 C581.30,427.87 579.31,429.15 578.55,430.34 C577.79,431.53 571.22,447.47 563.96,465.77 C556.69,484.07 549.43,501.03 547.82,503.46 C543.53,509.93 535.01,513.48 529.00,511.30 ZM 636.23 510.00 C630.76,506.66 629.58,501.33 633.45,497.45 C636.86,494.05 641.07,494.24 645.35,498.00 C647.23,499.65 649.18,501.00 649.69,501.00 C651.43,501.00 655.88,495.53 657.94,490.87 L 659.99 486.23 L 653.61 471.87 C650.10,463.97 644.00,450.80 640.05,442.61 L 632.88 427.72 L 626.19 428.35 C622.51,428.70 618.26,428.99 616.75,428.99 L 614.00 429.00 L 614.00 453.38 C614.00,471.66 614.31,478.01 615.25,478.79 C615.94,479.36 618.21,480.14 620.30,480.53 C623.07,481.05 624.01,481.68 623.79,482.87 C623.51,484.30 621.31,484.50 605.50,484.50 C589.69,484.50 587.49,484.30 587.21,482.87 C586.99,481.70 587.90,481.05 590.44,480.58 C592.38,480.21 594.43,479.06 594.99,478.02 C595.59,476.90 596.00,466.41 596.00,452.13 L 596.00 428.13 L 592.70 428.66 C589.00,429.26 586.55,427.33 587.59,424.63 C588.01,423.52 589.42,423.00 591.96,423.00 L 595.71 423.00 L 596.35 416.75 C597.32,407.23 597.35,407.18 601.98,401.80 C608.06,394.74 614.26,392.02 624.30,392.01 C635.92,392.00 641.00,395.42 641.00,403.27 C641.00,405.99 640.30,407.80 638.55,409.55 C635.58,412.51 633.53,412.62 629.28,410.03 C626.11,408.10 625.72,407.26 624.51,399.75 C623.98,396.42 623.58,396.00 621.03,396.00 C619.10,396.00 617.46,396.88 616.07,398.63 C614.27,400.93 614.00,402.66 614.00,412.03 C614.00,420.74 614.29,422.90 615.52,423.37 C616.36,423.69 622.55,423.71 629.27,423.40 C644.04,422.73 649.37,423.95 652.60,428.74 C653.77,430.48 657.53,438.56 660.96,446.70 C664.38,454.84 667.51,461.85 667.91,462.27 C668.90,463.31 681.33,431.31 680.64,429.51 C680.34,428.72 678.61,427.70 676.80,427.23 C674.97,426.75 673.36,425.62 673.18,424.69 C672.89,423.19 674.08,423.00 683.93,423.00 C693.92,423.00 695.00,423.18 695.00,424.80 C695.00,425.93 693.76,427.05 691.65,427.81 C689.23,428.68 687.87,430.07 686.77,432.76 C685.93,434.82 681.11,446.85 676.06,459.50 C662.17,494.29 660.04,499.10 656.37,504.14 C650.99,511.52 642.68,513.93 636.23,510.00 ZM 276.50 486.42 C275.40,486.18 272.02,485.48 269.00,484.87 C265.98,484.26 261.36,482.68 258.75,481.36 C254.07,479.00 254.00,478.90 254.00,474.13 C254.00,471.47 253.71,466.53 253.36,463.15 L 252.72 457.00 L 255.41 457.00 C257.67,457.00 258.45,457.77 260.20,461.75 C263.62,469.54 268.57,476.57 272.14,478.75 C285.77,487.04 302.65,476.58 298.06,462.69 C296.41,457.69 292.31,454.37 282.93,450.41 C270.76,445.28 264.62,441.51 260.13,436.41 C253.61,429.01 252.32,418.15 256.88,409.25 C259.26,404.61 262.19,401.87 268.00,398.84 C272.05,396.74 273.81,396.50 285.50,396.50 C296.77,396.50 299.13,396.79 303.25,398.69 L 308.00 400.89 L 308.00 411.44 C308.00,424.35 306.64,425.22 302.05,415.25 C297.25,404.84 291.33,400.00 283.40,400.00 C269.07,400.00 263.82,415.68 275.25,424.37 C277.04,425.73 282.77,428.68 288.00,430.94 C307.50,439.36 313.41,445.99 313.47,459.50 C313.53,475.19 303.08,484.80 284.23,486.39 C281.08,486.65 277.60,486.67 276.50,486.42 ZM 338.50 485.17 C333.85,482.95 330.57,479.66 329.07,475.68 C328.43,474.00 328.00,464.06 328.00,451.00 L 328.00 429.12 L 324.25 428.81 C321.30,428.57 320.43,428.04 320.20,426.37 C319.97,424.80 320.63,423.97 322.70,423.23 C327.64,421.45 334.08,416.01 337.23,410.93 C339.47,407.33 340.92,406.00 342.61,406.00 C344.81,406.00 344.93,406.38 345.21,414.25 L 345.50 422.50 L 353.25 422.79 C357.51,422.95 361.06,423.52 361.12,424.04 C361.71,428.52 361.77,428.48 353.57,429.00 L 345.64 429.50 L 345.65 450.50 C345.66,462.05 346.00,472.52 346.40,473.76 C346.81,475.00 348.48,476.71 350.12,477.56 C353.24,479.18 354.58,478.85 360.73,474.96 C364.33,472.68 365.76,475.06 363.01,478.77 C358.11,485.39 345.75,488.62 338.50,485.17 ZM 388.00 485.52 C382.58,483.76 378.56,480.20 376.36,475.20 C375.05,472.25 374.70,467.75 374.61,452.90 C374.49,432.89 374.04,431.00 369.35,431.00 C367.18,431.00 365.06,428.61 366.21,427.46 C366.75,426.91 388.75,422.00 390.65,422.00 C391.74,422.00 392.00,426.25 392.01,444.25 C392.01,456.49 392.47,468.17 393.04,470.20 C395.03,477.37 402.16,480.03 408.70,476.04 C414.38,472.58 415.00,470.08 415.00,450.61 C415.00,431.94 415.06,432.17 409.68,431.07 C408.02,430.73 406.58,429.74 406.45,428.85 C406.27,427.62 407.99,426.85 413.86,425.52 C418.06,424.58 423.08,423.40 425.00,422.91 C426.92,422.41 429.51,422.01 430.75,422.01 L 433.00 422.00 L 433.02 448.75 C433.02,463.46 433.36,476.01 433.77,476.62 C434.17,477.24 435.99,478.07 437.81,478.47 C440.08,478.96 441.02,479.68 440.80,480.78 C440.57,482.02 437.78,482.77 428.51,484.12 C421.92,485.08 416.46,485.78 416.37,485.68 C416.24,485.53 415.17,478.62 415.04,477.05 C415.02,476.81 413.54,478.00 411.75,479.69 C405.02,486.07 396.32,488.21 388.00,485.52 ZM 467.79 485.64 C458.46,483.05 450.40,474.92 447.88,465.56 C446.09,458.90 447.18,444.32 449.89,438.73 C453.21,431.87 459.97,425.50 466.08,423.47 C473.12,421.13 483.83,421.76 487.86,424.74 C491.58,427.49 491.70,427.18 491.92,414.16 C492.12,402.73 491.45,401.00 486.85,401.00 C483.71,401.00 481.81,398.35 483.98,397.02 C485.37,396.15 505.47,392.00 508.25,392.00 C509.89,392.00 510.00,394.66 510.00,433.88 C510.00,478.84 509.80,477.16 515.26,478.53 C519.40,479.57 519.02,482.99 514.75,483.02 C512.96,483.03 507.67,483.66 503.00,484.42 C498.33,485.18 494.16,485.60 493.75,485.34 C493.34,485.09 493.00,483.33 493.00,481.44 C493.00,477.32 492.15,477.14 488.92,480.60 C483.91,485.96 475.88,487.88 467.79,485.64 ZM 485.19 477.25 C490.70,474.03 492.00,469.75 491.99,454.79 C491.99,447.48 491.52,439.83 490.96,437.78 C489.46,432.41 485.67,428.35 481.38,427.54 C476.41,426.61 472.90,428.30 469.76,433.15 C466.59,438.04 465.61,444.61 466.17,457.32 C466.51,465.20 466.99,467.30 469.32,471.29 C473.61,478.61 479.24,480.72 485.19,477.25 ZM 112.94 483.11 C106.52,481.01 106.00,480.33 106.00,473.96 C106.00,470.68 106.41,468.00 106.90,468.00 C107.40,468.00 109.01,470.05 110.48,472.56 C114.96,480.21 121.59,482.82 128.04,479.48 C130.92,477.99 132.71,474.22 131.71,471.75 C131.43,471.06 128.57,469.17 125.35,467.55 C117.88,463.77 109.57,456.80 107.98,452.96 C107.27,451.23 106.96,447.81 107.25,444.80 C107.87,438.26 111.61,434.48 118.44,433.46 C123.14,432.75 132.65,433.54 134.64,434.79 C136.12,435.73 137.28,445.13 136.13,446.88 C134.97,448.65 133.00,447.45 133.00,444.98 C133.00,443.93 131.60,441.48 129.90,439.53 C127.17,436.43 126.22,436.00 122.15,436.02 C116.65,436.03 115.46,436.65 114.11,440.22 C112.66,444.02 114.89,446.19 124.09,449.95 C135.05,454.43 139.04,459.20 138.94,467.68 C138.89,471.88 138.73,472.24 137.69,470.50 C135.60,466.99 123.40,455.00 121.92,455.00 C121.14,455.00 122.86,457.27 125.75,460.04 C128.63,462.81 132.76,467.84 134.91,471.23 C138.80,477.34 138.81,477.39 136.66,478.50 C135.47,479.12 133.25,480.44 131.72,481.45 C128.61,483.49 117.18,484.50 112.94,483.11 Z" fill="rgb(241,241,227)"/>
</g>
</svg>